<?xml version="1.0" encoding="UTF-8"?><svg id="CIRCLE_OUTLINE_BLACK" xmlns="http://www.w3.org/2000/svg" viewBox="0 0 512 512"><circle cx="256" cy="256" r="256" fill="#ed0059" stroke-width="0"/><path d="M147.83961,158.21102c15.03562-.44478,27.33654,5.42009,37.73171,15.80658,37.15199,37.12104,74.27564,74.27049,111.40595,111.41324,15.24158,15.24679,20.83895,33.4204,14.48551,54.10739-6.32962,20.60948-20.90424,33.06202-42.11754,36.96738-16.99458,3.12859-32.33909-1.68452-44.475-13.64672-38.75465-38.19983-77.48059-76.44747-115.38437-115.4857-28.82184-29.68448-14.07601-78.19575,25.97696-87.89374,3.9938-.96703,8.245-.87105,12.37677-1.26842Z" fill="#fff" stroke-width="0"/><path d="M311.57356,210.71626c-.88282-25.15408,21.66364-54.49647,56.89018-52.42496,26.06309,1.53269,49.29908,25.34112,49.09009,53.026-.21919,29.03283-24.09777,52.69801-53.11116,52.63634-29.52637-.06272-53.059-23.75929-52.86911-53.23739Z" fill="#fff" stroke-width="0"/></svg>