<?xml version="1.0" encoding="utf-8"?>
<!-- Generator: Adobe Illustrator 24.0.0, SVG Export Plug-In . SVG Version: 6.00 Build 0)  -->
<svg version="1.1" id="Layer_1" xmlns="http://www.w3.org/2000/svg" xmlns:xlink="http://www.w3.org/1999/xlink" x="0px" y="0px"
	 viewBox="0 0 400 432.7" style="enable-background:new 0 0 400 432.7;" xml:space="preserve">
<style type="text/css">
	.st0{fill:#F50DB4;}
	.st1{fill-rule:evenodd;clip-rule:evenodd;fill:#F50DB4;}
</style>
<path class="st0" d="M325.1,65.4c0.6-10.2,2-17,4.8-23.1c1.1-2.4,2.1-4.4,2.3-4.4s-0.3,1.8-1.1,4c-2,6-2.4,14.2-1,23.7
	c1.8,12.1,2.8,13.8,15.6,26.9c6,6.1,13,13.8,15.5,17.1l4.6,6l-4.6-4.3c-5.6-5.3-18.6-15.5-21.4-17c-1.9-1-2.2-1-3.4,0.2
	c-1.1,1.1-1.3,2.7-1.5,10.4c-0.2,12-1.9,19.7-5.8,27.3c-2.1,4.2-2.5,3.3-0.5-1.4c1.4-3.5,1.6-5,1.6-16.6c0-23.3-2.8-28.9-19.1-38.5
	c-4.1-2.4-10.9-5.9-15.1-7.8c-4.2-1.9-7.5-3.5-7.4-3.6c0.5-0.5,16.3,4.2,22.7,6.6c9.5,3.6,11.1,4.1,12.2,3.7
	C324.4,74.2,324.8,72,325.1,65.4z"/>
<path class="st0" d="M124.4,31.5c-5.6-0.9-5.9-1-3.2-1.4c5.1-0.8,17.1,0.3,25.4,2.2c19.3,4.6,36.9,16.3,55.6,37l5,5.5l7.1-1.1
	c30-4.8,60.6-1,86.1,10.8c7,3.2,18.1,9.7,19.5,11.3c0.4,0.5,1.3,3.9,1.8,7.5c1.9,12.5,0.9,22.1-2.9,29.3c-2.1,3.9-2.2,5.1-0.8,8.5
	c1.1,2.7,4.3,4.6,7.4,4.6c6.3,0,13.2-10.2,16.3-24.4l1.3-5.6l2.5,2.8c13.7,15.4,24.4,36.4,26.2,51.3l0.5,3.9l-2.3-3.5
	c-4-6.1-7.9-10.2-13-13.6c-9.2-6-18.9-8.1-44.5-9.4c-23.2-1.2-36.3-3.2-49.3-7.4c-22.1-7.2-33.3-16.7-59.6-51.1
	c-11.7-15.2-18.9-23.7-26.1-30.5C161,42.8,145,34.7,124.4,31.5z"/>
<path class="st0" d="M135.4,105.3c-11.4-15.7-18.5-39.7-17-57.6l0.5-5.6l2.6,0.5c4.9,0.9,13.3,4,17.3,6.4
	c10.8,6.5,15.5,15.2,20.3,37.3c1.4,6.5,3.2,13.8,4.1,16.3c1.4,4,6.5,13.3,10.7,19.4c3,4.4,1,6.4-5.6,5.8
	C158,126.9,144.2,117.5,135.4,105.3z"/>
<path class="st0" d="M311.3,221.9c-53.5-21.4-72.3-40-72.3-71.4c0-4.6,0.2-8.4,0.4-8.4c0.2,0,2.3,1.5,4.6,3.4
	c10.8,8.6,23,12.3,56.6,17.2c19.8,2.9,30.9,5.2,41.2,8.6c32.6,10.8,52.8,32.6,57.6,62.4c1.4,8.6,0.6,24.9-1.7,33.4
	c-1.8,6.7-7.3,18.9-8.7,19.4c-0.4,0.1-0.8-1.4-0.9-3.5c-0.6-11.2-6.2-22-15.8-30.2C361.4,243.6,346.9,236.2,311.3,221.9z"/>
<path class="st0" d="M273.7,230.8c-0.7-4-1.8-9-2.6-11.3l-1.4-4l2.5,2.8c3.5,3.9,6.3,8.9,8.6,15.6c1.8,5.1,2,6.6,2,14.9
	c0,8.1-0.2,9.8-1.9,14.4c-2.6,7.2-5.8,12.4-11.3,17.9c-9.8,9.9-22.3,15.4-40.4,17.6c-3.1,0.4-12.3,1.1-20.4,1.5
	c-20.3,1.1-33.7,3.2-45.8,7.4c-1.7,0.6-3.3,1-3.4,0.8c-0.5-0.5,7.7-5.3,14.5-8.6c9.5-4.6,19-7.1,40.3-10.6
	c10.5-1.7,21.4-3.9,24.1-4.7C264.6,276.7,278,256.2,273.7,230.8z"/>
<path class="st0" d="M298.2,274.1c-7.1-15.2-8.7-29.9-4.8-43.5c0.4-1.5,1.1-2.7,1.5-2.7c0.4,0,2.1,0.9,3.7,2
	c3.3,2.2,9.8,5.9,27.3,15.4c21.8,11.8,34.3,21,42.7,31.5c7.4,9.2,12,19.6,14.2,32.3c1.3,7.2,0.5,24.6-1.3,31.8
	c-5.9,22.9-19.5,40.9-39,51.4c-2.9,1.5-5.4,2.8-5.7,2.8c-0.3,0,0.8-2.6,2.3-5.8c6.5-13.6,7.3-26.8,2.3-41.6c-3-9-9.2-20-21.7-38.6
	C305.4,287.5,301.8,281.7,298.2,274.1z"/>
<path class="st0" d="M97.4,356.1c19.8-16.7,44.5-28.5,67-32.1c9.7-1.6,25.8-0.9,34.8,1.3c14.4,3.7,27.3,11.9,33.9,21.6
	c6.5,9.5,9.3,17.9,12.3,36.4c1.2,7.3,2.4,14.6,2.8,16.3c2.2,9.6,6.5,17.3,11.8,21.1c8.4,6.1,22.9,6.5,37.1,1
	c2.4-0.9,4.5-1.6,4.7-1.4c0.5,0.5-6.7,5.3-11.7,7.8c-6.8,3.4-12.2,4.7-19.4,4.7c-13,0-23.9-6.6-32.9-20c-1.8-2.6-5.8-10.6-8.9-17.6
	c-9.5-21.6-14.2-28.2-25.3-35.4c-9.6-6.3-22.1-7.4-31.4-2.8c-12.3,6-15.7,21.6-6.9,31.5c3.5,3.9,10,7.3,15.3,8
	c10,1.2,18.5-6.3,18.5-16.3c0-6.5-2.5-10.2-8.8-13.1c-8.6-3.9-17.9,0.7-17.9,8.7c0,3.4,1.5,5.6,5,7.2c2.2,1,2.3,1.1,0.5,0.7
	c-7.9-1.6-9.8-11.1-3.4-17.4c7.7-7.6,23.5-4.2,28.9,6.1c2.3,4.3,2.5,13,0.6,18.2c-4.5,11.7-17.4,17.8-30.6,14.5
	c-9-2.3-12.6-4.7-23.4-15.8c-18.8-19.3-26.1-23-53.2-27.2l-5.2-0.8L97.4,356.1z"/>
<path class="st1" d="M9.2,11.5c62.8,75.7,106,107,110.8,113.6c4,5.5,2.5,10.4-4.3,14.2c-3.8,2.1-11.5,4.3-15.4,4.3
	c-4.4,0-5.9-1.7-5.9-1.7c-2.6-2.4-4-2-17.1-25.1C59.1,88.8,43.9,65.5,43.5,65.1c-1-0.9-0.9-0.9,32,57.7c5.3,12.2,1.1,16.7,1.1,18.4
	c0,3.5-1,5.4-5.4,10.3c-7.3,8.1-10.6,17.2-12.9,36.1c-2.6,21.1-10.1,36.1-30.7,61.6c-12.1,15-14,17.7-17.1,23.7
	c-3.8,7.6-4.9,11.9-5.3,21.4c-0.5,10.1,0.4,16.7,3.5,26.4c2.7,8.5,5.6,14.1,12.9,25.3c6.3,9.7,9.9,16.9,9.9,19.7
	c0,2.2,0.4,2.2,10.2,0.1c23.3-5.2,42.2-14.4,52.8-25.7c6.6-7,8.1-10.8,8.2-20.4c0-6.3-0.2-7.6-1.9-11.2c-2.8-5.9-7.8-10.7-18.9-18.3
	c-14.5-9.9-20.8-17.9-22.5-28.8c-1.4-9,0.2-15.3,8.3-32.1c8.3-17.4,10.4-24.8,11.8-42.3c0.9-11.3,2.2-15.8,5.4-19.3
	c3.4-3.7,6.5-5,14.9-6.1c13.7-1.9,22.5-5.4,29.7-12c6.2-5.7,8.9-11.2,9.3-19.5l0.3-6.3l-3.5-4C122.8,105.1,0.8,0,0,0
	C-0.2,0,4,5.2,9.2,11.5z M38.5,305.9c2.9-5,1.3-11.5-3.4-14.7c-4.5-3-11.5-1.6-11.5,2.3c0,1.2,0.7,2.1,2.1,2.8
	c2.5,1.3,2.7,2.7,0.7,5.7c-2,3-1.8,5.6,0.5,7.4C30.5,312.3,35.7,310.7,38.5,305.9z"/>
<path class="st1" d="M147.6,164.9c-6.5,2-12.7,8.8-14.7,15.9c-1.2,4.4-0.5,12,1.3,14.3c2.9,3.8,5.6,4.8,13.1,4.8
	c14.7-0.1,27.5-6.4,29-14.2c1.2-6.4-4.4-15.3-12.1-19.2C160.2,164.4,151.7,163.6,147.6,164.9z M164.8,178.3c2.3-3.2,1.3-6.7-2.6-9
	c-7.3-4.5-18.4-0.8-18.4,6.1c0,3.4,5.8,7.2,11.1,7.2C158.4,182.6,163.2,180.5,164.8,178.3z"/>
</svg>
